Coordinates
version=1
nRows=13
nColumns=38
inDegrees=no

Units are S.I. units (second, meters, Newtons, ...)
If the header above contains a line with 'inDegrees', this indicates whether rotational values are in degrees (yes) or radians (no).

endheader
time	pelvis_tilt	pelvis_list	pelvis_rotation	pelvis_tx	pelvis_ty	pelvis_tz	hip_flexion_r	hip_adduction_r	hip_rotation_r	knee_angle_r	ankle_angle_r	subtalar_angle_r	mtp_angle_r	hip_flexion_l	hip_adduction_l	hip_rotation_l	knee_angle_l	ankle_angle_l	subtalar_angle_l	mtp_angle_l	lumbar_extension	lumbar_bending	lumbar_rotation	arm_flex_r	arm_add_r	arm_rot_r	elbow_flex_r	pro_sup_r	wrist_flex_r	wrist_dev_r	arm_flex_l	arm_add_l	arm_rot_l	elbow_flex_l	pro_sup_l	wrist_flex_l	wrist_dev_l
0.2	0.0420918	-0.075556	0.0737454	1.00243	1.06334	-0.501511	0.237183	0.0488677	-0.237412	-0.160324	0.147239	0.0473849	-0.000373762	-0.219977	-0.124952	-0.135578	-0.555039	-0.289637	0.0428336	-0.000193839	-0.234989	0.151512	-0.118724	-0.730294	-0.211625	-0.279608	1.92355	1.66794	-0.00221318	0.0181769	-0.118135	-0.211873	0.33733	2.40333	1.78936	0.0209886	0.00443531
0.21	0.0444694	-0.0807827	0.0706952	1.00292	1.05969	-0.499832	0.245838	0.0587395	-0.226621	-0.210218	0.123506	0.0473849	-0.000373762	-0.201358	-0.138797	-0.13626	-0.623031	-0.319369	0.0428336	-0.000193839	-0.23977	0.156807	-0.113612	-0.718147	-0.211175	-0.273511	1.9306	1.64992	-0.00221318	0.0181769	-0.1364	-0.22157	0.32675	2.40374	1.78606	0.0209886	0.00443531
0.22	0.0473365	-0.0860715	0.0681267	1.00318	1.05521	-0.498181	0.254563	0.0681796	-0.217675	-0.263706	0.110627	0.0473849	-0.000373762	-0.180907	-0.152081	-0.134648	-0.691655	-0.33226	0.0428336	-0.000193839	-0.245393	0.161753	-0.109278	-0.700232	-0.211989	-0.26403	1.93195	1.63526	-0.00221318	0.0181769	-0.154838	-0.230704	0.312441	2.39791	1.78284	0.0209886	0.00443531
0.23	0.0507142	-0.091398	0.0660681	1.00321	1.05005	-0.496559	0.263256	0.0771795	-0.210536	-0.320583	0.108585	0.0473849	-0.000373762	-0.158647	-0.164784	-0.130767	-0.760813	-0.328546	0.0428336	-0.000193839	-0.251875	0.166347	-0.10571	-0.676582	-0.214022	-0.251222	1.92759	1.62402	-0.00221318	0.0181769	-0.173399	-0.23926	0.294478	2.38578	1.77974	0.0209886	0.00443531
0.24	0.0546885	-0.0966852	0.0645964	1.00302	1.04446	-0.494977	0.27156	0.0857132	-0.205089	-0.38016	0.117137	0.0473849	-0.000373762	-0.134674	-0.176839	-0.124712	-0.830166	-0.309073	0.0428336	-0.000193839	-0.259267	0.170582	-0.102839	-0.64735	-0.217125	-0.235296	1.91757	1.61647	-0.00221318	0.0181769	-0.191922	-0.247201	0.273121	2.36719	1.77689	0.0209886	0.00443531
0.25	0.0594108	-0.101827	0.0638416	1.00265	1.03876	-0.493463	0.278756	0.0937134	-0.201139	-0.441074	0.135508	0.0473849	-0.000373762	-0.109198	-0.188103	-0.116677	-0.899022	-0.275609	0.0428336	-0.000193839	-0.267673	0.174418	-0.100475	-0.612922	-0.220993	-0.216711	1.9021	1.61302	-0.00221318	0.0181769	-0.210098	-0.254487	0.248922	2.34193	1.77456	0.0209886	0.00443531
0.26	0.0650232	-0.106636	0.0639694	1.00209	1.03325	-0.492071	0.283765	0.101066	-0.198457	-0.501307	0.162205	0.0473849	-0.000373762	-0.0825732	-0.198354	-0.106971	-0.966322	-0.230904	0.0428336	-0.000193839	-0.277252	0.177811	-0.0982375	-0.574042	-0.225157	-0.196255	1.88175	1.61419	-0.00221318	0.0181769	-0.227463	-0.261102	0.22279	2.30989	1.77307	0.0209886	0.00443531
0.27	0.0716339	-0.110864	0.0651357	1.00133	1.02811	-0.490872	0.285338	0.107597	-0.196827	-0.558435	0.195096	0.0473849	-0.000373762	-0.0552322	-0.207303	-0.0959902	-1.03071	-0.17844	0.0428336	-0.000193839	-0.288138	0.180707	-0.0955426	-0.531883	-0.229026	-0.175023	1.85763	1.62043	-0.00221318	0.0181769	-0.243466	-0.267078	0.195968	2.27126	1.77279	0.0209886	0.00443531
0.28	0.0792207	-0.114241	0.0674322	1.00036	1.02349	-0.489934	0.282329	0.113077	-0.196052	-0.610012	0.231708	0.0473849	-0.000373762	-0.0276007	-0.214605	-0.0841942	-1.0907	-0.121975	0.0428336	-0.000193839	-0.300336	0.183012	-0.091714	-0.487974	-0.23201	-0.154235	1.83146	1.63189	-0.00221318	0.0181769	-0.257641	-0.272506	0.169856	2.22683	1.77399	0.0209886	0.00443531
0.29	0.0875476	-0.116471	0.0708299	0.999229	1.01952	-0.489286	0.273982	0.117226	-0.1959	-0.653937	0.269575	0.0473849	-0.000373762	1.5398e-05	-0.219867	-0.0720731	-1.14478	-0.0650756	0.0428336	-0.000193839	-0.313566	0.184498	-0.0862979	-0.443916	-0.233718	-0.13481	1.80539	1.64825	-0.00221318	0.0181769	-0.269925	-0.277522	0.145607	2.17813	1.77677	0.0209886	0.00443531
0.3	0.0961822	-0.117283	0.0751093	0.997994	1.01631	-0.488919	0.260076	0.119797	-0.196044	-0.688699	0.306524	0.0473849	-0.000373762	0.027467	-0.222731	-0.0601634	-1.19161	-0.0107254	0.0428336	-0.000193839	-0.327253	0.184826	-0.0790718	-0.40126	-0.234024	-0.117225	1.78193	1.66851	-0.00221318	0.0181769	-0.280728	-0.282302	0.123983	2.12757	1.78089	0.0209886	0.00443531
0.31	0.104548	-0.116522	0.0798385	0.996744	1.01394	-0.488787	0.240911	0.120686	-0.196064	-0.713489	0.340827	0.0473849	-0.000373762	0.0547227	-0.222999	-0.0490759	-1.23011	0.0389204	0.0428336	-0.000193839	-0.340658	0.183659	-0.0698206	-0.361538	-0.232992	-0.101679	1.7638	1.69106	-0.00221318	0.0181769	-0.290766	-0.287083	0.105464	2.07822	1.78555	0.0209886	0.00443531
0.32	0.111978	-0.114139	0.0844481	0.995568	1.01246	-0.488819	0.217222	0.1199	-0.195516	-0.728154	0.371232	0.0473849	-0.000373762	0.0818459	-0.220642	-0.0394569	-1.25956	0.0825758	0.0428336	-0.000193839	-0.352932	0.180652	-0.0585229	-0.325983	-0.230884	-0.0879038	1.7535	1.71377	-0.00221318	0.0181769	-0.301081	-0.292095	0.0900892	2.03355	1.78942	0.0209886	0.00443531
